<mxfile host="app.diagrams.net" modified="2023-11-13T16:03:37.239Z" agent="Mozilla/5.0 (Windows NT 10.0; Win64; x64; rv:109.0) Gecko/20100101 Firefox/119.0" version="21.8.2" etag="Fg3Kv6l713cC3HWET2nK" type="github">
  <diagram name="Page-1" id="PPxdTZ-ovf7214HKWRM5">
    <mxGraphModel>
      <root>
        <mxCell id="0" />
        <mxCell id="1" parent="0" />
      </root>
    </mxGraphModel>
  </diagram>
</mxfile>
